<?xml version="1.0" standalone="no"?>
<!DOCTYPE svg PUBLIC "-//W3C//DTD SVG 20010904//EN"
 "http://www.w3.org/TR/2001/REC-SVG-20010904/DTD/svg10.dtd">
<svg version="1.0" xmlns="http://www.w3.org/2000/svg"
 width="2000.000000pt" height="2000.000000pt" viewBox="0 0 2000.000000 2000.000000"
 preserveAspectRatio="xMidYMid meet">
<metadata>
Created by potrace 1.14, written by Peter Selinger 2001-2017
</metadata>
<g transform="translate(0.000000,2000.000000) scale(0.100000,-0.100000)"
fill="#000000" stroke="none">
<path d="M9455 16324 c-176 -123 -512 -358 -748 -521 -473 -330 -565 -394
-954 -665 -147 -102 -299 -208 -338 -234 -38 -26 -74 -52 -80 -56 -9 -8 -520
-363 -978 -680 -98 -68 -193 -134 -212 -148 -18 -14 -45 -34 -59 -44 -88 -64
-198 -174 -278 -275 -32 -42 -62 -81 -66 -86 -40 -51 -114 -197 -160 -315 -16
-41 -33 -84 -37 -95 -4 -11 -9 -24 -10 -30 -2 -5 -12 -41 -24 -79 -34 -109
-74 -294 -86 -391 -3 -27 -10 -84 -14 -125 -9 -78 -7 -459 3 -520 3 -19 8 -57
11 -85 4 -27 8 -57 10 -65 2 -8 7 -28 9 -45 48 -273 156 -562 324 -867 18 -32
46 -84 63 -115 51 -93 231 -407 242 -420 7 -10 11 -10 21 0 6 7 79 124 161
260 83 137 160 265 172 285 13 21 26 44 30 52 3 8 9 17 12 20 3 3 11 14 18 25
76 132 260 431 266 433 4 2 7 7 7 12 0 4 54 96 120 204 66 108 120 198 120
201 0 2 17 30 38 62 22 32 51 81 67 108 15 28 31 55 35 60 4 6 124 201 265
435 142 234 328 540 413 680 85 140 204 336 264 435 134 220 112 184 213 348
47 76 85 141 85 144 0 2 15 28 34 56 18 29 93 151 166 272 73 121 207 341 297
489 89 147 163 272 163 277 0 5 4 9 9 9 5 0 11 6 13 13 2 6 37 67 78 135 41
68 82 135 91 150 9 15 87 144 174 287 87 143 163 270 169 282 6 13 14 23 19
23 4 0 7 4 7 9 0 5 41 76 91 158 50 81 93 151 96 156 12 20 -36 -12 -332 -219z"/>
<path d="M10245 16538 c5 -7 36 -53 70 -103 34 -49 92 -135 130 -190 107 -156
196 -286 232 -337 18 -26 33 -52 33 -57 0 -5 4 -11 9 -13 4 -1 130 -185 279
-408 149 -223 275 -409 279 -415 5 -5 75 -111 157 -235 129 -193 244 -367 682
-1030 38 -58 71 -109 74 -115 6 -11 68 -106 182 -278 43 -65 78 -120 78 -123
0 -3 5 -10 11 -17 10 -12 59 -87 244 -377 48 -74 108 -169 135 -210 27 -41 77
-120 111 -175 35 -55 66 -102 69 -105 7 -7 28 -41 37 -60 4 -8 11 -19 16 -25
4 -5 104 -163 222 -350 118 -187 220 -349 228 -360 13 -19 625 -1008 677
-1095 5 -8 40 -64 77 -125 490 -804 688 -1155 774 -1375 88 -223 164 -478 195
-650 4 -25 8 -47 9 -50 1 -3 5 -25 9 -50 5 -25 10 -54 12 -65 17 -89 23 -316
12 -470 -4 -49 -4 -83 -1 -75 3 8 9 17 13 20 13 10 174 331 228 455 57 131
127 317 173 463 40 125 113 404 124 472 3 19 10 55 15 80 25 117 36 214 47
420 20 380 1 1125 -32 1274 -3 12 -7 44 -9 71 -95 1039 -566 1987 -1336 2685
-58 52 -125 111 -150 130 -24 19 -52 42 -60 50 -9 8 -41 32 -71 53 -111 78
-396 278 -675 472 -159 110 -362 252 -454 315 -205 144 -318 222 -395 274 -33
23 -62 43 -65 46 -3 3 -32 23 -65 45 -32 22 -66 45 -75 52 -8 7 -67 48 -130
92 -63 44 -153 106 -199 138 -46 32 -119 83 -162 113 -43 30 -129 90 -191 133
-62 44 -219 152 -348 242 -129 90 -248 173 -265 185 -16 12 -140 98 -275 191
-135 94 -254 177 -265 185 -11 8 -85 59 -165 115 -80 55 -152 105 -160 112
-38 30 -102 68 -95 55z"/>
<path d="M4701 12393 c-15 -32 -61 -123 -102 -203 -215 -421 -360 -869 -444
-1369 -6 -36 -10 -86 -22 -261 -15 -230 -8 -968 12 -1116 2 -17 6 -66 9 -110
6 -81 12 -141 21 -229 3 -27 8 -72 11 -98 4 -40 32 -204 59 -342 3 -16 22 -91
41 -165 98 -376 243 -721 455 -1079 209 -354 536 -739 859 -1011 36 -30 67
-57 70 -60 20 -20 115 -90 225 -166 72 -50 166 -115 210 -146 44 -30 181 -125
305 -211 124 -86 230 -160 235 -164 6 -5 60 -42 120 -84 103 -71 181 -124 300
-208 28 -19 93 -64 145 -99 52 -36 104 -73 116 -84 11 -10 25 -18 31 -18 6 0
13 -4 15 -8 2 -4 46 -37 98 -73 52 -36 198 -137 323 -225 126 -87 239 -166
252 -174 13 -8 110 -76 216 -150 106 -74 207 -143 224 -154 16 -10 32 -21 35
-25 3 -4 39 -29 80 -57 41 -28 140 -96 220 -152 80 -55 173 -120 208 -144 35
-24 72 -51 84 -61 12 -9 24 -17 28 -17 4 0 18 -9 31 -20 12 -12 39 -31 59 -43
19 -11 40 -26 46 -32 6 -5 64 -46 128 -90 182 -124 280 -193 293 -204 7 -6 16
-11 21 -11 5 0 17 -9 27 -20 27 -30 39 -24 18 10 -9 16 -21 30 -25 30 -4 0 -8
5 -8 12 0 6 -7 20 -17 30 -9 10 -21 27 -27 37 -6 11 -60 90 -120 178 -103 149
-146 212 -328 478 -463 680 -1269 1895 -1647 2483 -36 57 -72 110 -78 117 -7
8 -13 16 -13 18 0 6 -64 106 -78 122 -4 6 -11 17 -15 25 -4 8 -15 27 -25 41
-95 146 -490 763 -660 1034 -80 127 -160 255 -180 285 -19 30 -45 71 -57 90
-12 19 -42 66 -66 104 -24 39 -48 78 -54 87 -5 10 -26 43 -45 74 -19 31 -39
64 -45 73 -5 10 -43 71 -84 137 -41 66 -112 181 -158 255 -46 74 -88 142 -93
150 -5 8 -19 31 -30 50 -11 19 -39 64 -61 100 -133 209 -683 1136 -740 1245
-89 171 -160 337 -219 515 -43 128 -92 301 -105 371 -3 13 -9 47 -15 74 -5 28
-12 67 -16 89 -3 21 -8 48 -10 60 -19 95 -25 378 -12 504 4 34 5 62 3 62 -3 0
-18 -26 -34 -57z"/>
<path d="M13895 9537 c-54 -94 -242 -405 -526 -870 -60 -98 -109 -182 -109
-187 0 -6 -4 -10 -9 -10 -5 0 -11 -6 -13 -12 -2 -7 -37 -68 -78 -136 -41 -68
-82 -135 -91 -150 -9 -15 -94 -155 -189 -312 -95 -157 -180 -297 -189 -312 -9
-15 -104 -171 -211 -348 -107 -176 -200 -328 -205 -338 -6 -9 -37 -61 -70
-115 -33 -54 -66 -110 -74 -125 -8 -15 -17 -29 -20 -32 -3 -3 -15 -21 -25 -40
-11 -19 -31 -53 -45 -75 -14 -22 -31 -49 -37 -60 -6 -11 -68 -114 -139 -230
-146 -239 -137 -225 -230 -379 -38 -64 -77 -128 -85 -141 -8 -13 -31 -50 -50
-82 -27 -44 -299 -492 -361 -593 -55 -91 -230 -382 -289 -480 -41 -69 -78
-126 -82 -128 -5 -2 -8 -7 -8 -12 0 -4 -18 -37 -40 -71 -22 -35 -51 -84 -65
-109 -21 -37 -107 -181 -144 -240 -36 -58 -260 -429 -270 -447 -9 -19 162 98
924 629 94 65 177 123 185 128 8 6 97 68 197 138 322 224 740 515 866 602 189
130 358 248 467 325 55 39 143 99 196 135 52 36 111 76 129 90 18 14 89 63
157 110 68 46 125 86 128 90 3 3 43 31 90 62 304 205 405 282 510 388 173 174
279 345 374 603 36 96 98 325 110 401 4 21 8 48 11 60 5 21 8 48 23 176 15
134 7 510 -13 612 -3 16 -7 40 -9 55 -11 75 -20 118 -51 238 -50 192 -106 343
-173 465 -11 19 -28 53 -39 75 -87 171 -387 706 -396 705 -1 0 -15 -24 -32
-53z"/>
</g>
</svg>
