<svg width="73" height="52" viewBox="0 0 73 52" fill="none" xmlns="http://www.w3.org/2000/svg">
<path d="M21.756 9H24.33C25.617 9 26.4 8.343 26.4 7.263C26.4 6.489 26.031 5.967 25.311 5.733C25.959 5.463 26.283 4.959 26.283 4.212C26.283 3.141 25.509 2.493 24.24 2.493H21.756V9ZM24.186 3.276C24.951 3.276 25.383 3.645 25.383 4.293C25.383 4.968 24.969 5.364 24.24 5.364H22.638V3.276H24.186ZM24.312 6.129C25.059 6.129 25.491 6.507 25.491 7.155C25.491 7.83 25.068 8.217 24.312 8.217H22.638V6.129H24.312ZM30.402 4.599V6.921C30.402 7.866 29.979 8.361 29.205 8.361C28.557 8.361 28.152 8.001 28.152 7.056V4.599H27.306V7.335C27.306 8.415 27.882 9.108 28.908 9.108C29.556 9.108 30.141 8.793 30.393 8.334L30.483 9H31.239V4.599H30.402ZM32.8805 3.555C33.1865 3.555 33.4385 3.303 33.4385 2.997C33.4385 2.682 33.1865 2.439 32.8805 2.439C32.5745 2.439 32.3225 2.682 32.3225 2.997C32.3225 3.303 32.5745 3.555 32.8805 3.555ZM32.4665 9H33.3125V4.599H32.4665V9ZM35.4047 9V2.376H34.5587V9H35.4047ZM38.7021 8.262C38.5581 8.316 38.4051 8.343 38.2791 8.343C37.9461 8.343 37.7121 8.154 37.7121 7.65V5.31H38.7381V4.599H37.7121V3.222H36.8661V4.599H36.1821V5.31H36.8661V7.767C36.8661 8.658 37.3071 9.099 38.0811 9.099C38.3331 9.099 38.5851 9.054 38.8101 8.964L38.7021 8.262ZM42.9083 9L42.9713 8.199C43.2593 8.802 43.8442 9.108 44.5373 9.108C45.8153 9.108 46.6073 8.154 46.6073 6.822C46.6073 5.463 45.8513 4.473 44.5913 4.473C43.8713 4.473 43.2773 4.779 42.9893 5.355V2.376H42.1433V9H42.9083ZM42.9983 6.786C42.9983 5.886 43.5203 5.238 44.3843 5.238C45.2483 5.238 45.7613 5.886 45.7613 6.786C45.7613 7.695 45.2483 8.343 44.3843 8.343C43.5203 8.343 42.9983 7.704 42.9983 6.786ZM46.9673 10.971C47.1923 11.025 47.4263 11.061 47.7053 11.061C48.3803 11.061 48.8213 10.746 49.1183 9.99L51.1973 4.599H50.3243L49.0193 8.145L47.7413 4.599H46.8503L48.6233 9.234L48.4703 9.657C48.2633 10.215 47.9393 10.278 47.5343 10.278H46.9673V10.971Z" fill="white"/>
<path d="M5.02158 46.1833L4.84696 46.5298C4.8311 46.5421 4.81463 46.5535 4.79761 46.5641C4.78885 46.569 4.77912 46.5718 4.76914 46.5724C3.25071 46.5753 1.73396 46.5779 0.218907 46.58C0.158803 46.58 0.0986979 46.5737 0.0385934 46.5686C0.0303685 46.5686 0.0227765 46.559 0 46.5444C0.0272052 46.4058 0.139189 46.3079 0.198029 46.1833C0.261297 46.046 0.382139 45.9793 0.510572 45.9119C1.28497 45.5057 1.74683 44.8509 1.95371 44.0124C2.01704 43.7353 2.05515 43.4529 2.0676 43.1688C2.1334 42.0733 2.19202 40.9776 2.24348 39.8816C2.27954 39.1004 2.30232 38.3185 2.32257 37.5366C2.34522 36.7479 2.12637 35.9713 1.69558 35.3116C1.67976 35.2862 1.66395 35.2601 1.64876 35.2334C1.64228 35.219 1.63699 35.2042 1.63295 35.1889C1.70853 34.9715 1.80627 34.7625 1.92461 34.5653H6.94872C7.09772 34.753 7.23688 34.9485 7.36566 35.1508C7.4 35.212 7.41767 35.2813 7.4169 35.3516C7.44435 35.9005 7.57307 36.4394 7.79651 36.9409C8.07225 37.586 8.4364 38.1892 8.87839 38.7329C8.91572 38.7793 8.95938 38.8207 9.0005 38.8639C9.08971 38.8397 9.10553 38.7654 9.13716 38.7075C9.42191 38.1685 9.62188 37.5884 9.72998 36.9879C9.8332 36.4387 9.88804 35.8813 9.89385 35.3224C9.89385 35.2588 9.89891 35.201 9.90207 35.1317C10.1229 34.941 10.3715 34.7827 10.6062 34.6079C10.6754 34.565 10.7571 34.547 10.8378 34.557H11.597H15.4804H15.7967L16.1991 35.2468C16.1857 35.2962 16.1694 35.3448 16.1504 35.3923C15.848 36.0452 15.7031 36.7394 15.6228 37.4482C15.4962 38.5524 15.5184 39.6585 15.6006 40.7653C15.7371 42.497 16.0012 44.2162 16.3908 45.9087C16.4067 45.978 16.4199 46.0479 16.4332 46.1179C16.4349 46.142 16.4349 46.1662 16.4332 46.1903C16.3312 46.3117 16.2167 46.4219 16.0916 46.519C16.052 46.5492 16.005 46.5679 15.9555 46.573C15.885 46.5787 15.8143 46.58 15.7436 46.5768H10.1786C10.09 46.3594 10.0056 46.1545 9.92548 45.9621C10.0628 45.5171 10.202 45.0944 10.3247 44.6659C10.6607 43.515 10.8807 42.333 10.9814 41.1378C11.0871 39.8257 11.0523 38.5187 10.7575 37.2289C10.7214 37.0706 10.6752 36.9148 10.6309 36.7585C10.6186 36.7348 10.6026 36.7134 10.5835 36.6949C10.5069 36.7146 10.524 36.7756 10.517 36.8188C10.1145 39.2974 9.39374 41.7131 8.37288 44.0054C8.08644 44.6558 7.76715 45.291 7.41627 45.9087C7.36123 46.0047 7.30239 46.0994 7.24039 46.2011C6.99838 46.1434 6.76107 46.0673 6.53052 45.9736C6.51027 45.8877 6.4837 45.8013 6.46725 45.7129C6.15471 43.5452 5.41068 41.5281 4.35473 39.6204C4.05082 39.0694 3.71558 38.5364 3.35067 38.0241C3.29436 37.9459 3.25197 37.8506 3.1653 37.8055C3.10203 37.8341 3.11658 37.8805 3.11658 37.9167C3.12038 39.7354 3.12291 41.5542 3.13366 43.3729C3.13475 43.6267 3.15975 43.8797 3.20832 44.1288C3.30287 44.5685 3.51531 44.9738 3.82265 45.301C4.08844 45.5951 4.40156 45.8422 4.74889 46.032L5.02158 46.1833Z" fill="white"/>
<path d="M45.4865 33.1375C45.8577 32.481 46.1103 31.7637 46.2325 31.0187C46.3351 30.4277 46.3748 29.8274 46.3508 29.2279C46.2964 27.8294 45.9383 26.5027 45.3961 25.223L45.2695 24.928L45.8453 23.9465C46.0718 23.9809 46.2881 24.0165 46.5077 24.0476C47.5535 24.1951 48.6019 24.2478 49.6534 24.1264C49.9444 24.0934 50.2329 24.0368 50.5233 23.9993C51.4242 23.881 52.3188 23.9077 53.2014 24.1411C53.7031 24.2658 54.1804 24.474 54.6136 24.757C55.5461 25.3832 56.0801 26.2509 56.1693 27.3812C56.256 28.4714 55.9036 29.3996 55.1241 30.1611C54.8343 30.4472 54.483 30.6628 54.0973 30.7911C54.0404 30.8095 53.986 30.8356 53.9145 30.8648C53.9504 30.8914 53.988 30.9156 54.0271 30.9373C54.3877 31.1001 54.6199 31.3823 54.7825 31.737C54.9248 32.063 55.0192 32.4079 55.0628 32.7611C55.1539 33.3784 55.126 33.9976 55.1178 34.6174C55.1109 35.1259 55.1083 35.6345 55.1273 36.1431C55.1456 36.6108 55.2264 37.0739 55.3677 37.52C55.4521 37.8026 55.5802 38.0701 55.7473 38.3127C56.0171 38.6932 56.4196 38.9577 56.8747 39.0537C57.3297 39.1497 57.8041 39.0701 58.2034 38.8308C58.3411 38.746 58.466 38.6417 58.5741 38.5212C58.8709 38.1894 58.9126 37.7851 58.7007 37.3916C58.6402 37.286 58.5739 37.1839 58.502 37.0858C58.3198 36.828 58.1908 36.5362 58.1224 36.2276C58.0701 35.9884 58.0684 35.7409 58.1174 35.501C58.285 34.7102 58.936 34.2194 59.7813 34.2372C60.3039 34.2487 60.7113 34.4813 61.0251 34.8907C61.2624 35.209 61.4207 35.5794 61.487 35.9714C61.7553 37.396 61.2972 39.4945 59.1372 40.4277C57.8225 40.9954 56.4863 41.01 55.1514 40.4836C54.3986 40.1927 53.7655 39.6552 53.3545 38.9579C52.9519 38.2748 52.6665 37.5285 52.5105 36.7502C52.3877 36.1429 52.3032 35.5284 52.2575 34.9104C52.2037 34.2747 52.1518 33.6346 52.0784 32.9989C52.0403 32.7072 51.9796 32.419 51.8968 32.1369C51.8439 31.962 51.7695 31.7943 51.6754 31.6379C51.5926 31.4914 51.4801 31.364 51.3452 31.264C51.2102 31.164 51.0559 31.0937 50.8922 31.0575C50.8333 31.0434 50.7737 31.0326 50.7137 31.025C50.5758 31.0085 50.4373 30.9945 50.2772 30.9774C50.2348 31.7167 50.1867 32.435 50.4777 33.1508L50.1829 33.7382C50.1076 33.7458 50.0387 33.7585 49.9703 33.7585C48.7366 33.7585 47.5029 33.7585 46.2685 33.7585C46.2037 33.7642 46.1384 33.7541 46.0782 33.7292C46.018 33.7044 45.9646 33.6654 45.9225 33.6155C45.7915 33.456 45.6422 33.3072 45.4865 33.1375ZM50.2361 24.9795C50.1684 25.094 50.1981 25.2078 50.2006 25.3165C50.2259 26.4946 50.2531 27.6728 50.2822 28.8509C50.2822 28.8916 50.2867 28.9323 50.2854 28.9724C50.2815 29.0388 50.2928 29.1053 50.3184 29.1667C50.3441 29.2281 50.3834 29.2828 50.4335 29.3265C50.5439 29.4297 50.6655 29.5201 50.796 29.596C51.0313 29.7231 51.292 29.7556 51.559 29.7581C52.2056 29.7638 52.942 29.3805 53.1274 28.4587C53.1945 28.0987 53.1945 27.7292 53.1274 27.3691C53.0742 27.0058 52.9452 26.6579 52.749 26.3481C52.5527 26.0383 52.2936 25.7737 51.9886 25.5714C51.5312 25.2679 51.0127 25.0697 50.4702 24.991C50.3924 24.9825 50.3143 24.9787 50.2361 24.9795Z" fill="white"/>
<path d="M8.21511 27.7055C8.35619 27.525 8.4821 27.3661 8.6042 27.2046C8.62904 27.1663 8.66312 27.1349 8.70327 27.1133C8.74342 27.0917 8.78834 27.0807 8.83387 27.0813C8.87436 27.0813 8.91485 27.0775 8.95534 27.0762C10.1574 27.0338 11.3595 26.9914 12.5616 26.949C12.6926 26.944 12.8242 26.949 12.9735 26.949C13.1319 27.1157 13.2757 27.2958 13.4031 27.4875C13.3436 27.7449 13.2841 28.0011 13.2259 28.2579C13.0119 29.1782 12.8863 30.117 12.8507 31.0614C12.8238 31.62 12.8689 32.1799 12.9849 32.7269C13.014 32.8541 13.0083 32.957 12.9102 33.0613C12.7508 33.231 12.6097 33.4179 12.4591 33.5959C12.429 33.6259 12.3969 33.6537 12.363 33.6792C12.2921 33.6099 12.2269 33.5476 12.1624 33.484C11.9605 33.2831 11.7313 33.1119 11.4816 32.9755C11.2296 32.8335 10.9505 32.7469 10.6626 32.7213C10.3748 32.6958 10.0849 32.7319 9.81199 32.8274C9.29446 32.9994 8.77376 33.1617 8.2499 33.3143C7.56928 33.5127 6.86923 33.6364 6.16206 33.683C5.58581 33.7224 5.00706 33.6642 4.45003 33.5107C3.83267 33.3387 3.26744 33.0155 2.80506 32.5699C1.82424 31.6449 1.15388 30.4364 0.886777 29.1117C0.509234 27.3798 0.696 25.5719 1.41949 23.9549C2.2483 22.0675 4.09573 20.5717 6.09753 20.1286C6.92001 19.9462 7.74249 19.9684 8.56498 20.1286C9.37797 20.2869 10.1948 20.4274 11.0122 20.559C11.2627 20.5905 11.5153 20.602 11.7676 20.5933C11.9708 20.5877 12.1695 20.5316 12.3459 20.4299C12.4256 20.3874 12.5028 20.3416 12.5989 20.2876L13.0418 20.6582C13.0694 20.6812 13.091 20.7105 13.1047 20.7437C13.1185 20.777 13.1241 20.813 13.1209 20.8489C13.1209 20.8794 13.1209 20.9124 13.1209 20.9404C13.1437 22.2199 13.1665 23.4997 13.1892 24.78C13.1892 24.8709 13.1892 24.9612 13.1892 25.0591C13.0178 25.0896 12.8868 25.007 12.7337 24.9669C12.6869 24.8716 12.6375 24.7724 12.5907 24.6726C12.1788 23.796 11.6873 22.9702 11.0552 22.2341C10.7551 21.876 10.4082 21.5604 10.0239 21.2958C9.69142 21.0624 9.31446 20.9008 8.91675 20.8209C8.60379 20.7557 8.28047 20.7595 7.96914 20.8322C7.65781 20.9048 7.3659 21.0446 7.11361 21.2417C6.82606 21.4677 6.58278 21.7453 6.39615 22.0605C6.09485 22.567 5.87072 23.116 5.7312 23.6892C5.57354 24.3092 5.46606 24.941 5.4098 25.5785C5.35332 26.1855 5.33915 26.7958 5.36741 27.4048C5.40474 28.2904 5.52115 29.1645 5.78308 30.0144C5.8988 30.404 6.0591 30.7788 6.26076 31.1313C6.39323 31.3712 6.55991 31.5903 6.75551 31.7816C6.87359 31.8922 7.00056 31.9928 7.13512 32.0823C7.64126 32.4097 8.17398 32.4498 8.72062 32.1866C9.35836 31.8783 9.78985 31.3958 9.93853 30.687C10.0127 30.3154 9.97574 29.93 9.83223 29.5796C9.65276 29.1036 9.38768 28.6649 9.05024 28.2853C8.84462 28.0571 8.61243 27.8638 8.3138 27.7672C8.27892 27.75 8.24585 27.7294 8.21511 27.7055Z" fill="white"/>
<path d="M35.3453 33.1166L34.8771 33.6252C34.6108 33.6569 31.4663 33.6646 30.9241 33.6353C30.7881 33.4719 30.6407 33.2927 30.4895 33.1172C30.4638 33.0862 30.446 33.0492 30.4377 33.0097C30.4294 32.9701 30.4309 32.9291 30.442 32.8903C30.5489 32.322 30.6641 31.7543 30.7533 31.1828C30.8931 30.289 30.9861 29.3901 30.9646 28.483C30.9574 28.1272 30.9174 27.7729 30.845 27.4245C30.8032 27.2148 30.7232 27.0146 30.609 26.834C30.5065 26.67 30.3717 26.5287 30.213 26.4189C29.7834 26.1271 29.2956 26.1449 28.8901 26.4697C28.6772 26.6436 28.5111 26.8683 28.4067 27.1232C28.3753 27.2084 28.3603 27.2988 28.3624 27.3896C28.3629 27.8875 28.3936 28.3849 28.4541 28.879C28.6 30.1717 28.8432 31.4515 29.1817 32.7072C29.1986 32.7546 29.204 32.8054 29.1975 32.8554C29.1911 32.9054 29.1728 32.953 29.1444 32.9945C29.0014 33.2037 28.8666 33.4179 28.7351 33.6207C28.487 33.6595 24.6758 33.6722 24.1836 33.6366C24.0235 33.3709 23.8849 33.0797 23.728 32.7886C23.759 32.6996 23.785 32.6131 23.8185 32.5298C24.1499 31.7213 24.3823 30.8754 24.5107 30.0106C24.691 28.7436 24.6163 27.4983 24.1785 26.286C24.0261 25.8549 23.8199 25.445 23.5648 25.0661C23.5363 25.0248 23.5123 24.9803 23.4756 24.9199C23.6426 24.569 23.8191 24.2206 24.002 23.8843C24.2481 23.8481 28.103 23.8398 28.4674 23.8742C28.5906 24.1016 28.6964 24.3381 28.7838 24.5817C28.796 24.6503 28.7879 24.7211 28.7604 24.7851C28.7015 24.979 28.6338 25.1703 28.5706 25.3636C28.559 25.4188 28.5505 25.4746 28.5452 25.5308C28.6224 25.4462 28.6718 25.4036 28.7104 25.349C28.8912 25.104 29.0981 24.8796 29.3272 24.6796C30.1092 24.0057 31.0241 23.7203 32.0478 23.7464C32.6049 23.7524 33.1525 23.8919 33.6453 24.1532C34.2818 24.499 34.7164 25.0102 34.8815 25.7291C34.9397 25.9977 34.9576 26.2734 34.9347 26.5473C34.8607 27.5911 34.7949 28.6362 34.8081 29.6832C34.8164 30.4352 34.8455 31.186 34.9632 31.931C35.0264 32.341 35.115 32.7453 35.3453 33.1166Z" fill="white"/>
<path d="M27.3506 43.987C27.2829 43.912 27.2209 43.8471 27.1608 43.7791C26.1839 42.6444 25.9074 41.3552 26.4174 39.9471C26.847 38.7609 27.7511 38.0902 28.9734 37.8576C29.7719 37.7063 30.5418 37.8366 31.284 38.1582L31.4605 38.2339C31.532 38.1748 31.6016 38.1188 31.6693 38.061C32.0592 37.7197 32.5074 37.4522 32.9922 37.2714C33.5186 37.0807 34.0551 37.0292 34.5998 37.1875C34.9136 37.2742 35.2028 37.4333 35.4445 37.6522C35.8563 38.0336 36 38.5918 35.8102 39.0984C35.6836 39.4398 35.4584 39.6909 35.0895 39.7761C34.9413 39.8124 34.7865 39.8126 34.6382 39.7767C34.4898 39.7407 34.3522 39.6697 34.2367 39.5695C34.1318 39.488 34.0523 39.3782 34.0075 39.2528C33.9626 39.1275 33.9543 38.9919 33.9836 38.862C34.0154 38.7342 34.0549 38.6085 34.1019 38.4856C34.1715 38.2701 34.1019 38.1226 33.8811 38.0712C33.7538 38.0412 33.6216 38.0388 33.4933 38.0642C33.3358 38.0999 33.1844 38.1588 33.0441 38.239C32.7929 38.3847 32.5701 38.5752 32.3867 38.8009C32.4342 38.8403 32.474 38.8798 32.5196 38.9115C33.7849 39.7945 34.2689 41.0183 34.0855 42.5312C33.933 43.7867 33.0048 45.0104 31.4212 45.3378C30.5659 45.5146 29.7535 45.3639 28.981 44.9666C28.8924 44.9208 28.8045 44.8738 28.702 44.8191C28.6576 44.888 28.6285 44.9656 28.6166 45.0468C28.6047 45.1279 28.6103 45.2107 28.633 45.2895C28.6556 45.3627 28.693 45.4303 28.7428 45.4882C28.7927 45.5461 28.854 45.5929 28.9228 45.6258C29.103 45.7192 29.3006 45.774 29.503 45.7866C29.998 45.8203 30.4953 45.7886 30.9822 45.6926C31.5889 45.5717 32.2143 45.5817 32.8169 45.7218C32.9049 45.7434 32.9928 45.7676 33.0795 45.7949C34.1892 46.1452 34.6232 47.1458 34.5771 48.0141C34.5444 48.5869 34.33 49.1341 33.9653 49.5754C33.5884 50.0445 33.1044 50.4153 32.5544 50.6561C31.9876 50.9017 31.3898 51.0673 30.7778 51.1481C30.0678 51.2598 29.3465 51.2812 28.6311 51.2117C28.1376 51.1674 27.6506 51.0667 27.1798 50.9116C26.9392 50.8326 26.7115 50.7185 26.5041 50.5728C26.3152 50.4433 26.1592 50.2713 26.0483 50.0704C25.9375 49.8695 25.8749 49.6454 25.8657 49.4158C25.86 49.3243 25.86 49.2328 25.8606 49.1412C25.8606 48.7426 26.046 48.442 26.3699 48.2245C26.5519 48.1037 26.7561 48.0208 26.9705 47.9808C27.185 47.9408 27.4052 47.9446 27.6182 47.9919C27.7435 48.0131 27.8626 48.0618 27.967 48.1346C28.0715 48.2073 28.1587 48.3023 28.2224 48.4127C28.6552 49.1355 29.3144 49.4699 30.1344 49.5169C30.5493 49.5526 30.9666 49.4872 31.351 49.3262C31.5084 49.2566 31.6571 49.1684 31.7939 49.0637C32.14 48.7979 32.0704 48.2589 31.7534 48.0345C31.543 47.8912 31.2969 47.8102 31.0429 47.8005C30.6689 47.7747 30.2932 47.8105 29.9307 47.9067C29.5508 48.0161 29.1555 48.0618 28.7608 48.0421C28.2167 48.004 27.7055 47.859 27.2506 47.5488C26.7749 47.2246 26.4699 46.786 26.4243 46.1973C26.3953 45.8209 26.4529 45.4429 26.5926 45.0925C26.7235 44.7605 26.9168 44.4571 27.1621 44.1987L27.3506 43.987ZM31.1764 41.8091C31.1574 41.6438 31.1328 41.3202 31.0809 41.0005C31.029 40.6689 30.9268 40.3473 30.7778 40.0469C30.6961 39.8719 30.5796 39.7155 30.4355 39.5873C30.3522 39.5126 30.2496 39.4629 30.1395 39.444C30.0294 39.4251 29.9163 39.4378 29.813 39.4805C29.6221 39.5517 29.4601 39.6845 29.3524 39.8581C29.2264 40.0546 29.136 40.272 29.0854 40.5002C28.9516 41.0849 28.9419 41.6914 29.0569 42.2801C29.1129 42.6313 29.2237 42.9713 29.3853 43.2877C29.467 43.4514 29.5784 43.5985 29.7136 43.7213C30.0597 44.0219 30.4906 43.9819 30.7772 43.6221C30.8926 43.4679 30.9784 43.2935 31.0303 43.1078C31.1492 42.7378 31.1726 42.3539 31.1764 41.8084V41.8091Z" fill="white"/>
<path d="M66.192 33.3138C66.1091 33.4829 66.0768 33.6316 65.9699 33.7588H61.5336C61.438 33.6532 61.3893 33.5204 61.3273 33.3856C61.4652 33.1574 61.6323 32.9343 61.5272 32.6075C61.4412 32.6806 61.3722 32.7347 61.3083 32.7938C60.9307 33.148 60.5069 33.4492 60.0487 33.6888C59.6469 33.9056 59.209 34.0465 58.7567 34.1046C57.9874 34.1923 57.3155 33.973 56.7518 33.4441C56.5434 33.2553 56.3839 33.0183 56.2871 32.7538C56.1902 32.4892 56.1588 32.2049 56.1956 31.9254C56.2981 30.9286 56.8195 30.1849 57.6249 29.6274C57.976 29.3833 58.3689 29.2186 58.77 29.0768C59.1895 28.9287 59.6121 28.7921 60.0354 28.6478C60.372 28.5397 60.6966 28.397 61.004 28.2218C61.2793 28.0667 61.5039 27.8346 61.6506 27.5537C61.7564 27.3562 61.819 27.1382 61.8339 26.9144C61.8489 26.6906 61.8159 26.4662 61.7373 26.2562C61.6914 26.1327 61.6288 26.0162 61.5513 25.9098C61.2881 25.543 60.8857 25.4171 60.4194 25.5862C60.0708 25.7134 59.8823 25.9676 59.857 26.3408C59.8341 26.5543 59.8721 26.7699 59.9664 26.9625C59.9825 26.9997 60.0007 27.036 60.0208 27.0712C60.3852 27.6014 59.9576 28.4882 59.2743 28.6458C58.4005 28.8474 57.2902 28.2301 57.2547 27.1094C57.2269 26.2137 57.5894 25.4699 58.2632 24.8844C58.7162 24.4915 59.2502 24.2551 59.8285 24.1178C61.0141 23.8361 62.1783 23.901 63.3082 24.3771C64.5318 24.8939 65.2619 25.8202 65.4821 27.1354C65.5263 27.4269 65.5405 27.7221 65.5245 28.0165C65.4998 28.6662 65.4549 29.3146 65.4131 29.9636C65.3758 30.5421 65.3436 31.1206 65.3866 31.6991C65.4056 31.9317 65.448 32.1617 65.5131 32.3857C65.6028 32.7337 65.8115 33.0389 66.1028 33.2477C66.1205 33.2667 66.1458 33.2833 66.192 33.3138ZM61.7202 29.1468C61.6671 29.1747 61.643 29.1792 61.6348 29.1932C61.4488 29.492 61.1672 29.6598 60.8515 29.7857C60.6915 29.8467 60.5346 29.9159 60.3814 29.9929C60.0635 30.1574 59.8221 30.4403 59.7089 30.7812C59.6172 31.0354 59.6343 31.2783 59.8095 31.4976C60.1208 31.8854 60.9483 32.0818 61.4165 31.5262C61.5729 31.3395 61.6844 31.1192 61.7423 30.8822C61.8841 30.3101 61.841 29.7399 61.7177 29.1468H61.7202Z" fill="white"/>
<path d="M72.664 32.9674L72.154 33.7563C71.7453 33.776 71.3315 33.7626 70.9203 33.7652C70.5091 33.7677 70.0915 33.7652 69.6771 33.7652C69.2627 33.7652 68.8476 33.7652 68.4332 33.7652C68.0188 33.7652 67.6063 33.7683 67.1805 33.7652C67.0331 33.4867 66.892 33.2185 66.7491 32.9515C66.7342 32.9195 66.7265 32.8847 66.7265 32.8494C66.7265 32.8142 66.7342 32.7794 66.7491 32.7474C66.849 32.4385 66.949 32.1295 67.0388 31.818C67.6342 29.7328 67.8306 27.553 67.6177 25.3943C67.4709 23.9741 67.1748 22.5883 66.6314 21.2622C66.62 21.2343 66.6111 21.2057 66.5928 21.1523L67.1388 20.0754C67.9695 20.0677 68.7837 20.1002 69.6031 20.1033C70.4224 20.1065 71.2379 20.1167 72.0623 20.1237C72.2059 20.3837 72.3014 20.6507 72.4128 20.9037C72.3084 21.3029 72.1989 21.6932 72.1047 22.0867C71.8816 23.0463 71.7406 24.0234 71.6833 25.0071C71.6383 25.666 71.6265 26.3267 71.6479 26.9867C71.7162 28.9447 72.0041 30.8645 72.5969 32.7385C72.6153 32.7989 72.6342 32.8688 72.664 32.9674Z" fill="white"/>
<path d="M17.6953 28.5751C17.6691 28.7992 17.6647 29.0253 17.6821 29.2503C17.7034 29.6978 17.8063 30.1376 17.9857 30.5477C18.1262 30.8874 18.35 31.1859 18.6361 31.4154C19.1916 31.8414 19.8028 31.9475 20.4646 31.7034C20.6755 31.6266 20.8623 31.495 21.0062 31.322C21.0979 31.2195 21.1616 31.095 21.1912 30.9604C21.2208 30.8258 21.2153 30.6858 21.1751 30.5541C21.1269 30.3995 21.0961 30.24 21.0833 30.0786C21.0568 29.4174 21.5945 28.9171 22.269 29.0494C22.8922 29.1708 23.2876 29.6215 23.3116 30.2852C23.3212 30.5505 23.2753 30.8149 23.1769 31.0614C22.6207 32.4726 21.6104 33.3588 20.1217 33.6455C18.633 33.9322 16.7748 33.4115 15.5942 32.3023C14.8312 31.5871 14.3693 30.7009 14.1435 29.6838C13.7114 27.7303 14.5326 25.6471 16.1535 24.5518C17.3499 23.7432 18.6595 23.5093 20.0597 23.8881C20.6969 24.0655 21.2772 24.4066 21.7432 24.8779C22.4126 25.5333 22.8662 26.3108 23.0453 27.2389C23.0729 27.4091 23.0849 27.5814 23.0813 27.7538C23.0779 27.8448 23.0622 27.9348 23.0345 28.0214C22.9961 28.1709 22.909 28.3031 22.7871 28.397C22.6652 28.4908 22.5156 28.541 22.362 28.5395C21.8362 28.5395 21.3105 28.5491 20.7841 28.5529L18.1148 28.5669C17.9838 28.5643 17.8573 28.5707 17.6953 28.5751ZM19.837 27.792C19.8488 27.7503 19.8573 27.7078 19.8623 27.6648C19.888 27.1878 19.8484 26.7096 19.7446 26.2434C19.6973 26.0248 19.6186 25.8144 19.5111 25.6185C19.4306 25.4652 19.3158 25.3327 19.1758 25.2314C18.7842 24.9631 18.2901 24.9733 18.0091 25.4736C17.9172 25.6425 17.8473 25.8226 17.801 26.0095C17.6536 26.5752 17.6428 27.1537 17.6858 27.7328C17.6858 27.7494 17.708 27.7646 17.7339 27.7996C18.3748 27.8047 19.0303 27.8104 19.6857 27.8136C19.7367 27.8105 19.7872 27.8033 19.837 27.792Z" fill="white"/>
<path d="M39.5056 28.5992C39.4929 28.6473 39.4836 28.6961 39.4778 28.7455C39.4491 29.295 39.5297 29.8448 39.715 30.3627C39.842 30.7403 40.0636 31.0788 40.3585 31.3455C40.8792 31.7981 41.4764 31.9341 42.1401 31.7517C42.3462 31.6953 42.5359 31.5905 42.6937 31.4459C42.9714 31.1916 43.0898 30.8884 42.9658 30.514C42.8807 30.2844 42.8627 30.0352 42.9139 29.7956C43.0366 29.2794 43.4732 28.9692 43.997 29.0398C44.6746 29.1288 45.0973 29.6087 45.1131 30.301C45.119 30.5966 45.0614 30.89 44.9441 31.1611C44.3659 32.5368 43.3536 33.3899 41.8826 33.6543C40.2851 33.9423 38.208 33.3295 37.011 31.8979C36.3707 31.1411 35.9736 30.2071 35.8722 29.2191C35.6893 27.516 36.2397 26.0762 37.4899 24.9186C38.2175 24.2453 39.0919 23.876 40.075 23.7539C40.749 23.6627 41.4349 23.7317 42.0775 23.9555C42.7383 24.1917 43.3269 24.596 43.7857 25.129C44.3051 25.7041 44.6666 26.4052 44.8347 27.1632C44.8896 27.4016 44.9006 27.6481 44.867 27.8904C44.8284 28.1447 44.7094 28.3481 44.4715 28.4683C44.3607 28.5189 44.2395 28.5427 44.1179 28.5376C43.6427 28.542 43.1688 28.5478 42.6924 28.5503C41.782 28.556 40.8722 28.5586 39.9618 28.5656C39.8156 28.5656 39.6638 28.5484 39.5056 28.5992ZM41.6491 27.7836C41.6841 27.4239 41.6781 27.0613 41.6314 26.703C41.6022 26.3794 41.5214 26.0626 41.3923 25.7647C41.2892 25.5403 41.1569 25.3362 40.9412 25.2052C40.4888 24.9313 40.0516 25.052 39.822 25.4672C39.7244 25.6445 39.6501 25.8338 39.6012 26.0304C39.4732 26.5853 39.4342 27.1572 39.4854 27.7245C39.4854 27.7417 39.505 27.7582 39.5158 27.7747C39.7682 27.8173 41.379 27.8275 41.6491 27.7836Z" fill="white"/>
<path d="M25.7003 46.2368C25.6402 46.3773 25.5921 46.4911 25.5402 46.6087C25.482 46.621 25.423 46.6291 25.3637 46.6329C24.1502 46.6329 22.9367 46.6329 21.7233 46.6329C21.6935 46.6329 21.6632 46.6265 21.6201 46.6221C21.5372 46.5407 21.4993 46.425 21.4405 46.3042C21.5474 46.1059 21.7011 45.9152 21.6271 45.6685C21.541 45.6259 21.5107 45.6965 21.4715 45.7321C21.0981 46.0913 20.6712 46.3897 20.2061 46.6163C19.7632 46.8299 19.3007 46.9653 18.8028 46.9393C18.5239 46.93 18.2497 46.8641 17.9967 46.7457C17.7437 46.6273 17.5171 46.4587 17.3306 46.2502C16.9269 45.8052 16.8491 45.2731 16.9807 44.7111C17.1521 43.9756 17.5773 43.4092 18.2005 42.9948C18.4811 42.813 18.7826 42.6659 19.0983 42.5568C19.4494 42.4296 19.8062 42.3158 20.1586 42.1912C20.387 42.1105 20.618 42.0336 20.8375 41.9312C21.0222 41.8491 21.1967 41.7456 21.3576 41.6229C21.6014 41.4286 21.7731 41.1574 21.8448 40.853C21.9166 40.5487 21.8842 40.2289 21.753 39.9453C21.6353 39.6974 21.4658 39.5003 21.1912 39.4266C20.859 39.335 20.573 39.4266 20.3288 39.6631C20.242 39.7485 20.1851 39.8601 20.1669 39.9809C20.1129 40.2316 20.1488 40.4934 20.2681 40.7202C20.3564 40.8576 20.4048 41.017 20.4079 41.1805C20.3973 41.3794 20.3306 41.5713 20.2157 41.7337C20.1008 41.8961 19.9423 42.0223 19.7588 42.0978C19.5593 42.1745 19.3431 42.1965 19.1324 42.1614C18.2714 42.0209 17.7336 41.2796 17.8759 40.417C18.0025 39.6325 18.4023 39.0185 19.078 38.5976C19.4489 38.3681 19.8588 38.2093 20.2871 38.1291C21.2203 37.9454 22.1396 37.9937 23.031 38.3402C23.276 38.4346 23.5107 38.5541 23.7314 38.6968C24.5184 39.2054 24.9493 39.9491 25.0872 40.8722C25.1292 41.1641 25.1402 41.4596 25.1201 41.7539C25.079 42.4233 25.0341 43.092 24.9936 43.7614C24.9579 44.1868 24.966 44.6148 25.0176 45.0385C25.049 45.2808 25.1226 45.5156 25.2353 45.7321C25.3441 45.938 25.5044 46.1119 25.7003 46.2368ZM21.7777 42.5727C21.3898 42.9846 21.3898 42.984 20.8603 43.2084C20.7576 43.2499 20.6574 43.2977 20.5604 43.3514C20.3029 43.4987 20.1091 43.7368 20.0163 44.0195C19.9722 44.123 19.9575 44.2368 19.9741 44.3482C19.9906 44.4595 20.0377 44.5641 20.1099 44.6501C20.3851 44.9845 21.0868 45.1402 21.4885 44.6984C21.6447 44.5242 21.7537 44.3125 21.8049 44.0837C21.9219 43.5917 21.8909 43.1009 21.7777 42.5727Z" fill="white"/>
<path d="M48.0489 43.6896C48.3962 43.8549 48.7372 44.0011 49.0751 44.188C49.0504 44.2592 49.0359 44.3151 49.0118 44.3698C48.8702 44.6628 48.6795 44.9293 48.4481 45.1574C47.809 45.8017 47.0009 46.2503 46.1179 46.4511C45.3386 46.6438 44.5227 46.6296 43.7505 46.4097C42.9441 46.1886 42.2298 45.7128 41.7132 45.0525C41.1336 44.3384 40.7881 43.4615 40.7243 42.5422C40.5978 40.8258 41.2539 39.4743 42.6654 38.5036C43.2348 38.1126 43.8789 37.9143 44.5634 37.8405C45.5343 37.736 46.5147 37.9141 47.3877 38.3535C47.8276 38.5629 48.2163 38.8667 48.5265 39.2435C48.9239 39.7132 49.1317 40.3153 49.1092 40.9313C49.0974 41.2779 49.001 41.6163 48.8283 41.9166C48.4734 42.5396 47.8161 42.7532 47.227 42.6667C46.9647 42.624 46.7246 42.4929 46.5463 42.2949C46.3489 42.0885 46.2143 41.8298 46.1584 41.5492C46.1267 41.4098 46.1301 41.2647 46.1686 41.1271C46.1768 41.0978 46.1882 41.0692 46.1958 41.04C46.3223 40.5607 46.1274 40.2568 45.6384 40.1532C45.4087 40.1103 45.1718 40.1303 44.9525 40.211C44.5626 40.3362 44.2344 40.6051 44.0339 40.9637C43.8804 41.222 43.7794 41.5083 43.7366 41.8061C43.6938 42.1038 43.7101 42.4072 43.7846 42.6985C43.911 43.2474 44.2096 43.741 44.6362 44.1066C45.2056 44.6018 45.8687 44.7315 46.5924 44.5993C46.7708 44.5633 46.9452 44.5098 47.1131 44.4397C47.4896 44.291 47.6693 44.1409 48.0489 43.6896Z" fill="white"/>
<path d="M35.9658 38.908L36.3853 38.0816C36.4081 38.0682 36.4163 38.0625 36.4251 38.0581C36.4338 38.0527 36.4435 38.0493 36.4536 38.0479C36.5238 38.0447 36.5947 38.0409 36.6656 38.0409L39.9998 38.0447C40.0266 38.0498 40.0527 38.0582 40.0776 38.0695C40.1497 38.2303 40.2269 38.4058 40.306 38.5781C40.3478 38.6702 40.3206 38.7541 40.2858 38.8412C40.1602 39.1515 40.0619 39.4723 39.9922 39.7999C39.9014 40.2163 39.8457 40.6397 39.8258 41.0655C39.7556 42.6357 40.0156 44.1589 40.4642 45.6559C40.4958 45.7627 40.5274 45.8683 40.5673 45.9903L40.1592 46.6216H36.4384C36.2809 46.4309 36.1854 46.1931 36.0784 45.9681C36.0481 45.9045 36.0727 45.8098 36.0911 45.7341C36.1689 45.4163 36.2638 45.108 36.3334 44.7914C36.5807 43.6484 36.6403 42.4726 36.5099 41.3103C36.4272 40.4901 36.2445 39.6833 35.9658 38.908Z" fill="white"/>
<path d="M72.9199 44.2731C72.8997 44.3144 72.8933 44.3475 72.8725 44.3653C72.8412 44.3907 72.8059 44.4107 72.7681 44.4244C72.4517 44.5515 72.1354 44.6908 71.8089 44.7988C70.4044 45.268 69.4478 46.1974 68.9144 47.5825C68.7499 48.0078 68.5588 48.4223 68.3792 48.8419C68.3673 48.8697 68.3524 48.8961 68.3349 48.9207C68.3247 48.9318 68.3123 48.9406 68.2985 48.9464C68.2846 48.9522 68.2696 48.9549 68.2546 48.9543C68.2396 48.9537 68.2249 48.9498 68.2116 48.9429C68.1982 48.936 68.1866 48.9263 68.1773 48.9143C68.1488 48.8605 68.1232 48.8051 68.1008 48.7484C67.911 48.2996 67.7351 47.8457 67.5314 47.4033C66.962 46.1401 66.042 45.2457 64.7141 44.8115C64.3477 44.692 64.0061 44.5166 63.6524 44.3665C63.6238 44.3569 63.5996 44.3373 63.5841 44.3112C63.5735 44.2751 63.5751 44.2364 63.5885 44.2013C63.6042 44.1752 63.629 44.1559 63.6581 44.1472C63.8959 44.0357 64.1421 43.9434 64.3945 43.8713C65.3373 43.6503 66.1819 43.1246 66.7987 42.3749C67.1203 41.9823 67.3766 41.5401 67.5579 41.0654C67.7332 40.6204 67.9262 40.1862 68.1122 39.7476C68.124 39.7197 68.1382 39.6929 68.1546 39.6675C68.1633 39.6551 68.1748 39.6451 68.1882 39.6381C68.2015 39.6312 68.2164 39.6276 68.2314 39.6276C68.2465 39.6276 68.2613 39.6312 68.2747 39.6381C68.2881 39.6451 68.2996 39.6551 68.3083 39.6675C68.3355 39.7099 68.3592 39.7546 68.3792 39.801C68.5772 40.2567 68.7771 40.7119 68.9707 41.1696C69.5401 42.5135 70.5157 43.4041 71.9076 43.8243C72.2144 43.9254 72.5148 44.0449 72.8073 44.1822C72.8492 44.2065 72.8872 44.2372 72.9199 44.2731Z" fill="white"/>
<path d="M62.2394 38.3293C62.2806 38.3821 62.3177 38.438 62.3501 38.4965C62.4767 38.7737 62.5988 39.0515 62.7152 39.3318C63.0834 40.2218 63.7186 40.8124 64.6366 41.094C64.8651 41.1562 65.0839 41.2497 65.287 41.3718C65.2946 41.4589 65.237 41.4767 65.1966 41.4939C65.0105 41.5721 64.8252 41.6541 64.6341 41.7157C63.6762 42.0259 63.0227 42.6489 62.6728 43.5987C62.5785 43.8529 62.4583 44.1015 62.3476 44.352C62.3235 44.3914 62.296 44.4286 62.2653 44.4632C62.2283 44.4248 62.1958 44.3821 62.1685 44.3361C62.0502 44.0672 61.9357 43.7964 61.8218 43.5256C61.458 42.6566 60.8526 42.0437 59.9516 41.7456C59.697 41.6604 59.4503 41.5528 59.2146 41.4239C59.2095 41.411 59.2073 41.3971 59.2082 41.3832C59.2091 41.3693 59.2131 41.3558 59.2198 41.3437C59.2265 41.3315 59.2358 41.321 59.247 41.3129C59.2583 41.3048 59.2712 41.2993 59.2848 41.2968C59.4746 41.2262 59.6644 41.1519 59.8542 41.0965C60.3617 40.9527 60.8209 40.6732 61.1828 40.2879C61.4466 40.0064 61.6539 39.6764 61.7934 39.316C61.9022 39.0432 62.0199 38.7737 62.1356 38.5035C62.1616 38.4527 62.1958 38.405 62.2394 38.3293Z" fill="white"/>
<path d="M61.0043 44.5161C61.0625 44.6146 61.0966 44.6623 61.12 44.7145C61.2105 44.9185 61.2978 45.1238 61.3858 45.3285C61.6654 45.9814 62.1368 46.4238 62.8118 46.6438C63.0144 46.6971 63.2077 46.7812 63.385 46.893C63.3464 46.9287 63.3039 46.96 63.2585 46.9864C63.0997 47.05 62.9422 47.1136 62.7777 47.1714C62.4544 47.2773 62.1594 47.4554 61.9146 47.6925C61.6699 47.9296 61.4819 48.2194 61.3649 48.5401C61.2877 48.7384 61.2004 48.933 61.1118 49.1281C61.0838 49.1786 61.0518 49.2269 61.0163 49.2724C60.9771 49.2044 60.9492 49.1656 60.9302 49.1224C60.8493 48.9368 60.7689 48.7505 60.6911 48.563C60.4076 47.8802 59.935 47.399 59.2277 47.1613C59.0196 47.0996 58.8213 47.0086 58.6387 46.8911C58.7374 46.7805 58.8588 46.7576 58.9664 46.7144C59.0404 46.6845 59.122 46.6724 59.1992 46.6508C59.5205 46.5559 59.8165 46.3896 60.0652 46.1643C60.3139 45.9389 60.509 45.6602 60.636 45.3489C60.7215 45.1537 60.7999 44.9554 60.8841 44.7596C60.9113 44.6928 60.9461 44.6318 61.0043 44.5161Z" fill="white"/>
<path d="M40.082 34.5656C39.9424 34.7428 39.7808 34.9013 39.6011 35.0372C39.2107 35.3517 38.9405 35.7921 38.8362 36.2839C38.8039 36.473 38.7849 36.6642 38.7793 36.856C38.7622 37.0975 38.7533 37.3391 38.7388 37.615C38.6867 37.5933 38.6373 37.5658 38.5914 37.533C38.4408 37.383 38.2927 37.2291 38.1485 37.0747C37.6379 36.5375 37.0204 36.2673 36.2764 36.3118C36.0664 36.3244 35.8557 36.3096 35.6494 36.268C35.6709 36.2205 35.6979 36.1756 35.7298 36.1345C35.809 36.056 35.8936 35.9832 35.9828 35.9164C36.6288 35.4485 36.9432 34.8109 36.9616 34.0169C36.9673 33.7627 36.9768 33.5122 36.9844 33.2738C36.9949 33.2642 37.0075 33.2569 37.0211 33.2526C37.0347 33.2483 37.0491 33.2469 37.0632 33.2487C37.0774 33.2504 37.091 33.2552 37.1032 33.2627C37.1153 33.2703 37.1257 33.2803 37.1337 33.2922C37.2975 33.4582 37.4652 33.6203 37.6253 33.79C38.146 34.3412 38.7799 34.5878 39.5353 34.5242C39.6664 34.5163 39.7978 34.5163 39.9289 34.5242C39.981 34.5335 40.0322 34.5473 40.082 34.5656Z" fill="white"/>
</svg>
