<svg width="22" height="21" viewBox="0 0 22 21" fill="none" xmlns="http://www.w3.org/2000/svg">
<path d="M18.4624 4.71924C18.4624 4.71924 16.2986 3.02598 13.7431 2.83154L13.5129 3.29214C15.8234 3.8575 16.8833 4.6678 17.9905 5.66308C16.0815 4.68856 14.1967 3.77539 10.9116 3.77539C7.62655 3.77539 5.74169 4.68856 3.83276 5.66308C4.93989 4.6678 6.20087 3.76831 8.31037 3.29214L8.08007 2.83154C5.39907 3.08497 3.36084 4.71924 3.36084 4.71924C3.36084 4.71924 0.944117 8.22327 0.529297 15.1016C2.96537 17.9109 6.6643 17.9331 6.6643 17.9331L7.43778 16.9019C6.12489 16.4456 4.64211 15.6306 3.36084 14.1577C4.88892 15.3139 7.19521 16.5173 10.9116 16.5173C14.628 16.5173 16.9343 15.3139 18.4624 14.1577C17.1811 15.6306 15.6983 16.4456 14.3854 16.9019L15.1589 17.9331C15.1589 17.9331 18.8579 17.9109 21.2939 15.1016C20.8791 8.22327 18.4624 4.71924 18.4624 4.71924ZM7.84411 13.2139C6.93188 13.2139 6.19238 12.3686 6.19238 11.3262C6.19238 10.2837 6.93188 9.43847 7.84411 9.43847C8.75634 9.43847 9.49584 10.2837 9.49584 11.3262C9.49584 12.3686 8.75634 13.2139 7.84411 13.2139ZM13.9791 13.2139C13.0669 13.2139 12.3274 12.3686 12.3274 11.3262C12.3274 10.2837 13.0669 9.43847 13.9791 9.43847C14.8913 9.43847 15.6308 10.2837 15.6308 11.3262C15.6308 12.3686 14.8913 13.2139 13.9791 13.2139Z" fill="white"/>
</svg>
