<svg width="12" height="12" viewBox="0 0 12 12" fill="none" xmlns="http://www.w3.org/2000/svg">
<path fill-rule="evenodd" clip-rule="evenodd" d="M9.9016 4.9508C9.9016 5.88092 9.64511 6.75112 9.199 7.49455L11.7264 10.0949C12.0987 10.4779 12.09 11.0902 11.7069 11.4625C11.3239 11.8348 10.7116 11.8261 10.3393 11.4431L7.89681 8.93007C7.0736 9.54053 6.05437 9.9016 4.9508 9.9016C2.21655 9.9016 0 7.68505 0 4.9508C0 2.21655 2.21655 0 4.9508 0C7.68505 0 9.9016 2.21655 9.9016 4.9508ZM4.95081 8.15426C6.72003 8.15426 8.15427 6.72003 8.15427 4.9508C8.15427 3.18158 6.72003 1.74734 4.95081 1.74734C3.18159 1.74734 1.74735 3.18158 1.74735 4.9508C1.74735 6.72003 3.18159 8.15426 4.95081 8.15426Z" fill="#9B9BA7"/>
</svg>
