<svg width="21" height="21" viewBox="0 0 21 21" fill="none" xmlns="http://www.w3.org/2000/svg">
<path d="M10.5285 -0.000366211C16.2063 -0.000366211 20.8232 4.745 20.8232 10.3787C20.8232 16.0124 16.2135 20.7545 10.5285 20.7545L0.0585938 20.7649V10.2003C0.0585938 4.5698 4.84419 -0.000366211 10.5285 -0.000366211ZM10.6304 3.94686C8.38651 3.94362 6.3081 5.11617 5.14852 7.0356C3.99609 8.94529 3.94872 11.3241 5.02004 13.2812L3.86436 16.965L8.01469 16.0358C10.387 17.0967 13.1753 16.6204 15.0513 14.8327C16.9305 13.0586 17.5288 10.3106 16.5554 7.91485C15.5756 5.51199 13.2331 3.94362 10.6375 3.94686H10.6304Z" fill="white"/>
</svg>
