<svg width="22" height="21" viewBox="0 0 22 21" fill="none" xmlns="http://www.w3.org/2000/svg">
<path fill-rule="evenodd" clip-rule="evenodd" d="M21.3525 10.3823C21.3525 16.116 16.7039 20.7646 10.9702 20.7646C5.23653 20.7646 0.587891 16.116 0.587891 10.3823C0.587891 4.64864 5.23653 0 10.9702 0C16.7051 0 21.3525 4.64864 21.3525 10.3823ZM5.70989 10.7311L5.75468 10.6607L8.45554 6.43553C8.49501 6.37368 8.58781 6.38007 8.61767 6.44727C9.06888 7.45848 9.45822 8.71612 9.27582 9.49907C9.19796 9.82121 8.98462 10.2575 8.7446 10.6607C8.71369 10.7194 8.67955 10.777 8.64327 10.8324C8.6262 10.858 8.5974 10.873 8.56646 10.873H5.78882C5.71415 10.873 5.67042 10.7919 5.70989 10.7311ZM17.7487 12.1851V11.5163C17.7487 11.4544 17.689 11.4096 17.6303 11.4267L14.4719 12.3398C14.4548 12.344 14.4398 12.3536 14.4281 12.3664C14.0898 12.7401 13.8024 12.9908 13.7262 13.0573L13.7209 13.0619C13.5246 13.2283 13.2814 13.319 13.0254 13.319H11.8819V12.1531H12.7908C12.8142 12.1531 12.8366 12.1445 12.8537 12.1296L12.971 12.0219C13.0212 11.976 13.0809 11.9205 13.1524 11.8491C13.1584 11.843 13.1646 11.8368 13.1708 11.8306C13.2084 11.7932 13.2485 11.7532 13.2878 11.7093C13.3348 11.6635 13.3806 11.6123 13.4233 11.5621C13.4948 11.4853 13.563 11.4053 13.6345 11.3211C13.6857 11.2656 13.7326 11.2027 13.7785 11.1397C13.8297 11.08 13.8798 11.0128 13.9268 10.9488C13.9442 10.9231 13.9628 10.8972 13.9818 10.8707C13.9999 10.8454 14.0184 10.8196 14.0366 10.7931C14.0708 10.7419 14.1049 10.6874 14.1337 10.6362C14.2233 10.4976 14.2991 10.3493 14.3631 10.201C14.3924 10.1375 14.4159 10.0707 14.4387 10.0057C14.4416 9.99752 14.4445 9.98939 14.4473 9.98131C14.4729 9.90556 14.4942 9.83411 14.5103 9.75836C14.5486 9.58022 14.5572 9.40316 14.5401 9.22608C14.5359 9.17061 14.5316 9.11621 14.5188 9.06503V9.05649C14.5145 9.02022 14.506 8.97968 14.4942 8.94235C14.4558 8.76954 14.3961 8.59674 14.3204 8.42714C14.2948 8.3642 14.2649 8.3002 14.2361 8.24154C14.1678 8.11461 14.0964 7.98765 14.0153 7.865C13.999 7.83909 13.9811 7.81284 13.9631 7.78664C13.9493 7.76645 13.9355 7.74629 13.9225 7.72633C13.8712 7.64715 13.8134 7.57081 13.7574 7.49673C13.7448 7.47999 13.7322 7.46337 13.7198 7.44686C13.6868 7.40344 13.6506 7.36004 13.6141 7.31634C13.5942 7.29239 13.5741 7.26835 13.5545 7.24418C13.499 7.17698 13.4446 7.11299 13.3892 7.05005C13.1908 6.82604 12.9828 6.62338 12.7972 6.45057C12.763 6.41644 12.7257 6.3823 12.6873 6.34924C12.5433 6.21803 12.4121 6.10389 12.3022 6.01537C12.2692 5.98997 12.2396 5.96495 12.212 5.94166C12.1933 5.92582 12.1755 5.91078 12.1582 5.89697C12.1249 5.87215 12.096 5.85013 12.0718 5.83165C12.0564 5.81994 12.0429 5.80964 12.0313 5.80095C12.0227 5.79456 12.0131 5.7903 12.0035 5.78708L11.8819 5.75296V4.746C11.8819 4.58173 11.8158 4.43453 11.7102 4.32679C11.6046 4.21906 11.4574 4.15293 11.2953 4.15293C10.971 4.15293 10.7086 4.41853 10.7086 4.746V5.42441L10.6478 5.40736L10.4824 5.36041L10.332 5.31882L10.3306 5.31841L10.3278 5.31774H10.3246L9.18321 5.00841C9.13309 4.99454 9.09042 5.04894 9.11602 5.09481L9.29841 5.43188C9.30878 5.45779 9.32189 5.48369 9.33537 5.51032C9.3441 5.52754 9.35297 5.54507 9.36135 5.56309C9.39123 5.62281 9.42109 5.68575 9.44989 5.74869C9.4755 5.80415 9.5011 5.85855 9.53096 5.91829C9.54351 5.94637 9.5563 5.97478 9.56928 6.0036C9.61696 6.10948 9.6671 6.22081 9.71655 6.34071C9.75922 6.44204 9.80189 6.54337 9.83923 6.64898C9.94164 6.91458 10.0387 7.19831 10.123 7.48953C10.1439 7.55471 10.1607 7.61777 10.1777 7.6817C10.1849 7.70879 10.1921 7.73604 10.1998 7.76367L10.2115 7.81485C10.2456 7.95034 10.2755 8.08473 10.2968 8.2202C10.3139 8.31299 10.3299 8.40153 10.3384 8.49113C10.3512 8.59246 10.364 8.69382 10.3683 8.79515C10.3768 8.88795 10.3811 8.98502 10.3811 9.07782C10.3811 9.31462 10.3598 9.54288 10.3096 9.75836C10.3065 9.76994 10.3033 9.78167 10.3002 9.7935C10.2861 9.84593 10.2716 9.90027 10.2542 9.95251C10.2384 10.0084 10.218 10.0644 10.1968 10.1225C10.1893 10.143 10.1817 10.1638 10.1742 10.185C10.1728 10.1888 10.1714 10.1926 10.17 10.1964C10.1543 10.2386 10.1383 10.2816 10.1187 10.3237C10.0131 10.5776 9.8819 10.8304 9.74643 11.0672C9.54803 11.4181 9.34856 11.7264 9.20882 11.9248C9.20028 11.9376 9.19194 11.9498 9.18391 11.9616C9.1739 11.9762 9.16436 11.9901 9.15549 12.0037C9.11176 12.0656 9.15655 12.1531 9.23228 12.1531H10.7086V13.319H9.21521C8.81414 13.319 8.44293 13.0918 8.26373 12.728C8.17094 12.5456 8.13466 12.3451 8.15601 12.1488C8.16132 12.0901 8.11759 12.0347 8.05787 12.0347H5.04127C4.99007 12.0347 4.94847 12.0763 4.94847 12.1275V12.1893C4.94847 14.1137 6.50264 15.6731 8.42053 15.6731H13.8318C14.8462 15.6731 15.4222 14.7488 15.9883 13.8403C16.1461 13.587 16.3031 13.335 16.4687 13.1046C16.7663 12.6907 17.482 12.3621 17.6911 12.2725C17.7252 12.2576 17.7487 12.2235 17.7487 12.1851Z" fill="white"/>
</svg>
