<svg width="21" height="21" viewBox="0 0 21 21" fill="none" xmlns="http://www.w3.org/2000/svg">
<path d="M18.6388 6.48127C18.6515 6.64986 18.6515 6.81845 18.6515 6.98859C18.6515 12.1728 14.3661 18.1518 6.53012 18.1518V18.1487C4.21535 18.1518 1.94866 17.5411 0 16.3898C0.336587 16.4271 0.674861 16.4457 1.01398 16.4465C2.93227 16.448 4.79573 15.8553 6.30489 14.7637C4.48192 14.7319 2.88334 13.6372 2.3249 12.0392C2.96348 12.1526 3.62147 12.1293 4.24825 11.9716C2.26078 11.6018 0.830922 9.99361 0.830922 8.12596C0.830922 8.10887 0.830922 8.09255 0.830922 8.07624C1.42311 8.38 2.08616 8.54859 2.7644 8.56723C0.892503 7.4151 0.315497 5.12171 1.44589 3.32864C3.60882 5.77974 6.80007 7.26982 10.2258 7.42753C9.88249 6.06486 10.3515 4.63693 11.4583 3.67902C13.1741 2.1936 15.8727 2.26973 17.4856 3.84916C18.4397 3.67591 19.3542 3.3535 20.191 2.89669C19.873 3.80487 19.2074 4.57633 18.3183 5.06655C19.1627 4.97488 19.9877 4.76667 20.7646 4.44892C20.1927 5.23824 19.4723 5.9258 18.6388 6.48127Z" fill="white"/>
</svg>
