<svg width="22" height="21" viewBox="0 0 22 21" fill="none" xmlns="http://www.w3.org/2000/svg">
<path d="M21.1541 5.36651C20.9142 4.46671 20.2128 3.76071 19.3176 3.52076C17.698 3.0824 11.2056 3.0824 11.2056 3.0824C11.2056 3.0824 4.71315 3.0824 3.09351 3.52076C2.19832 3.76071 1.49694 4.47132 1.25699 5.36651C0.823242 6.99538 0.823242 10.3962 0.823242 10.3962C0.823242 10.3962 0.823242 13.7969 1.25699 15.4258C1.49694 16.3256 2.19832 17.0039 3.09351 17.2439C4.71315 17.6822 11.2056 17.6822 11.2056 17.6822C11.2056 17.6822 17.698 17.6822 19.3176 17.2439C20.2128 17.0039 20.9142 16.3256 21.1541 15.4258C21.5879 13.7969 21.5879 10.3962 21.5879 10.3962C21.5879 10.3962 21.5879 6.99538 21.1541 5.36651ZM9.08295 13.4832V7.30915L14.5094 10.3962L9.08295 13.4832Z" fill="white"/>
</svg>
