<svg width="27" height="24" viewBox="0 0 27 24" fill="none" xmlns="http://www.w3.org/2000/svg">
<path d="M0.900367 0C0.403196 0 0 0.403038 0 0.90005C0 1.39705 0.402971 1.8001 0.900367 1.8001H3.77017L6.865 16.3972C6.98746 16.9467 7.34772 17.4039 7.80282 17.4004H22.808C23.2837 17.4071 23.7212 16.976 23.7212 16.5004C23.7212 16.0249 23.2837 15.5936 22.808 15.6003H8.53433L8.14978 13.8002H24.0087C24.4119 13.7973 24.7927 13.4903 24.8808 13.0971L26.9814 4.09712C27.0985 3.57481 26.6448 3.00416 26.1094 3.00015H5.87107L5.38332 0.712711C5.29812 0.313022 4.91043 -0.000267944 4.50181 0.000160625L0.900367 0ZM6.24598 4.80009H24.9746L23.296 12.0001H7.77522L6.24598 4.80009ZM10.8039 18C9.15705 18 7.80282 19.3538 7.80282 21C7.80282 22.6463 9.15705 24 10.8039 24C12.4507 24 13.8049 22.6463 13.8049 21C13.8049 19.3538 12.4507 18 10.8039 18ZM19.807 18C18.1602 18 16.806 19.3538 16.806 21C16.806 22.6463 18.1602 24 19.807 24C21.4538 24 22.808 22.6463 22.808 21C22.808 19.3538 21.4538 18 19.807 18ZM10.8039 19.8001C11.4775 19.8001 12.0042 20.3266 12.0042 21C12.0042 21.6734 11.4775 22.1999 10.8039 22.1999C10.1302 22.1999 9.60356 21.6732 9.60356 21C9.60356 20.3266 10.1305 19.8001 10.8039 19.8001ZM19.807 19.8001C20.4806 19.8001 21.0073 20.3266 21.0073 21C21.0073 21.6734 20.4806 22.1999 19.807 22.1999C19.1334 22.1999 18.6067 21.6732 18.6067 21C18.6067 20.3266 19.1336 19.8001 19.807 19.8001Z" fill="#5298FF"/>
</svg>
