<svg width="22" height="21" viewBox="0 0 22 21" fill="none" xmlns="http://www.w3.org/2000/svg">
<path fill-rule="evenodd" clip-rule="evenodd" d="M2.75628 5.58064C2.78224 5.32947 2.68447 5.0817 2.49413 4.91312L0.556099 2.61425V2.27112H6.57611L11.2291 12.3138L15.3197 2.27112H21.0586V2.61425L19.4009 4.17833C19.2581 4.28561 19.1872 4.46186 19.2166 4.6364V16.129C19.1872 16.3027 19.2581 16.479 19.4009 16.5863L21.0196 18.1504V18.4935H12.8764V18.1504L14.5541 16.548C14.7184 16.3862 14.7184 16.3385 14.7184 16.0907V6.8016L10.0559 18.456H9.42605L3.99697 6.8016V14.6126C3.95198 14.9404 4.06272 15.2717 4.29719 15.5084L6.47834 18.112V18.456H0.293945V18.112L2.4751 15.5084C2.7087 15.2708 2.81252 14.9379 2.75628 14.6126V5.58064V5.58064Z" fill="white"/>
</svg>
