<svg width="22" height="21" viewBox="0 0 22 21" fill="none" xmlns="http://www.w3.org/2000/svg">
<path d="M11.147 0.25708C5.41073 0.25708 0.764648 4.90576 0.764648 10.6394C0.764648 15.2275 3.73918 19.1183 7.86355 20.4896C8.38267 20.5874 8.57301 20.2664 8.57301 19.9904C8.57301 19.7438 8.56436 19.0906 8.56003 18.2254C5.67202 18.8518 5.06293 16.8324 5.06293 16.8324C4.59053 15.6342 3.90789 15.314 3.90789 15.314C2.96743 14.6703 3.98057 14.6833 3.98057 14.6833C5.02313 14.756 5.57079 15.7527 5.57079 15.7527C6.49655 17.3403 8.00112 16.8818 8.59464 16.6161C8.68808 15.9448 8.95543 15.4871 9.25219 15.2275C6.94645 14.968 4.52305 14.0751 4.52305 10.0969C4.52305 8.96352 4.92536 8.03776 5.59156 7.311C5.47476 7.04884 5.12435 5.99331 5.6824 4.56315C5.6824 4.56315 6.55192 4.28455 8.53754 5.62733C9.36812 5.39633 10.2506 5.28212 11.1331 5.27693C12.0156 5.28212 12.8981 5.39633 13.7287 5.62733C15.7013 4.28455 16.5709 4.56315 16.5709 4.56315C17.1289 5.99331 16.7785 7.04884 16.6747 7.311C17.3365 8.03776 17.7389 8.96352 17.7389 10.0969C17.7389 14.0855 15.312 14.9636 13.0019 15.2189C13.3653 15.5303 13.7027 16.1671 13.7027 17.1396C13.7027 18.5291 13.6898 19.6452 13.6898 19.9826C13.6898 20.2551 13.8715 20.5796 14.4035 20.4758C18.5573 19.114 21.5293 15.2206 21.5293 10.6394C21.5293 4.90576 16.8806 0.25708 11.147 0.25708Z" fill="white"/>
</svg>
