<svg width="197" height="66" viewBox="0 0 197 66" fill="none" xmlns="http://www.w3.org/2000/svg">
<path d="M8.69476 15.8234C9.3105 14.68 10.1989 13.7052 11.2821 12.9851L29.458 0.334839L10.8345 31.028C10.8345 31.028 9.20737 28.2873 8.57257 26.9004C7.78188 25.1568 7.38303 23.2619 7.40409 21.3485C7.42516 19.435 7.86575 17.5492 8.69476 15.8234ZM1.19333 36.9964C1.39857 39.9317 2.23059 42.7892 3.63382 45.3778C5.03684 47.9667 6.97875 50.2265 9.32936 52.0065L29.4335 65.9786C29.4335 65.9786 16.8551 47.9115 6.24584 29.9334C5.17166 28.034 4.44958 25.9573 4.11413 23.8028C3.96566 22.8272 3.96566 21.8348 4.11413 20.8592C3.83746 21.3702 3.30057 22.4162 3.30057 22.4162C2.22478 24.6028 1.49207 26.9412 1.12812 29.3496C0.918661 31.8952 0.94053 34.4546 1.19333 36.9964ZM52.4504 39.4291C51.7994 38.0425 50.1885 35.3015 50.1885 35.3015L31.5977 65.9786L49.7736 53.3364C50.8566 52.6163 51.7452 51.6417 52.3609 50.4983C53.1899 48.7723 53.6303 46.8865 53.6516 44.9732C53.6727 43.0598 53.2738 41.1647 52.4829 39.4211L52.4504 39.4291ZM59.8297 29.3251C59.6244 26.3901 58.7924 23.5323 57.3894 20.9437C55.9861 18.355 54.0442 16.095 51.6936 14.3152L31.622 0.334839C31.622 0.334839 44.1922 18.402 54.8098 36.3801C55.881 38.2801 56.6003 40.3567 56.9333 42.5106C57.0818 43.4862 57.0818 44.4787 56.9333 45.4543C57.21 44.9433 57.7469 43.8973 57.7469 43.8973C58.8227 41.7107 59.5554 39.3723 59.9191 36.9639C60.1314 34.4184 60.1123 31.8591 59.8624 29.3171L59.8297 29.3251Z" fill="white"/>
<path d="M78.8797 45.9329V38.7678C78.8797 35.964 78.845 33.8179 78.5335 31.9142L83.9333 45.9329H89.0562L94.4906 31.9142C94.2137 33.8179 94.2137 35.0294 94.2137 40.5677V45.9329H99.6481V20.3184H94.1445L86.4948 39.4254L78.8797 20.3184H73.4453V45.9329H78.8797Z" fill="white"/>
<path d="M121.079 45.9329V40.7408H110.418V35.4448H119.867V30.5296H110.418V25.5106H121.079V20.3184H104.81V45.9329H121.079Z" fill="white"/>
<path d="M131.101 45.9329V36.9678H135.428L139.27 45.9329H145.397L140.897 35.7563C143.735 34.3025 145.154 31.9488 145.154 28.6258C145.154 23.3299 141.624 20.3184 135.393 20.3184H125.493V45.9329H131.101ZM131.101 25.3029H135.393C137.885 25.3029 139.235 26.4798 139.235 28.6258C139.235 30.8065 137.816 32.0526 135.359 32.0526H131.101V25.3029Z" fill="white"/>
<path d="M160.228 46.3482C166.632 46.3482 171.408 42.5753 172.308 36.864H166.493C165.801 39.3908 163.482 40.9484 160.332 40.9484C156.213 40.9484 153.651 37.937 153.651 33.1257C153.651 28.2451 156.178 25.3029 160.332 25.3029C163.412 25.3029 165.593 26.7567 166.355 29.3181H172.274C171.478 23.5722 166.874 19.9031 160.47 19.9031C152.821 19.9031 147.732 25.1644 147.732 33.1603C147.732 41.26 152.544 46.3482 160.228 46.3482Z" fill="white"/>
<path d="M181.493 45.9329V35.6179H191.393V45.9329H197V20.3184H191.393V30.4258H181.493V20.3184H175.885V45.9329H181.493Z" fill="white"/>
</svg>
