<svg width="173" height="54" viewBox="0 0 173 54" fill="none" xmlns="http://www.w3.org/2000/svg">
<path d="M6.33693 12.7412C6.84309 11.8007 7.57337 10.9988 8.4638 10.4064L23.4048 0L8.09585 25.2489C8.09585 25.2489 6.75831 22.9943 6.23649 21.8534C5.58652 20.419 5.25866 18.8603 5.27597 17.2863C5.29329 15.7122 5.65546 14.1609 6.33693 12.7412ZM0.170559 30.1586C0.339277 32.5732 1.02322 34.9239 2.1767 37.0533C3.33002 39.183 4.92633 41.042 6.85859 42.5062L23.3847 54C23.3847 54 13.0449 39.1376 4.32386 24.3484C3.44085 22.7859 2.84729 21.0776 2.57153 19.3053C2.44949 18.5027 2.44949 17.6863 2.57153 16.8838C2.3441 17.3041 1.90277 18.1646 1.90277 18.1646C1.01844 19.9634 0.416133 21.8869 0.116959 23.8681C-0.0552225 25.9623 -0.0372462 28.0676 0.170559 30.1586ZM42.3052 32.1598C41.77 31.0191 40.4459 28.7643 40.4459 28.7643L25.1638 54L40.1048 43.6002C40.9951 43.0078 41.7255 42.2061 42.2317 41.2655C42.9131 39.8457 43.2751 38.2944 43.2926 36.7205C43.3099 35.1464 42.9821 33.5876 42.3319 32.1532L42.3052 32.1598ZM48.3711 23.848C48.2024 21.4336 47.5185 19.0827 46.3652 16.9533C45.2117 14.8238 43.6154 12.9646 41.6831 11.5005L25.1837 0C25.1837 0 35.5167 14.8624 44.2447 29.6516C45.1253 31.2146 45.7165 32.9229 45.9903 34.6947C46.1123 35.4973 46.1123 36.3137 45.9903 37.1162C46.2177 36.6959 46.6591 35.8354 46.6591 35.8354C47.5434 34.0366 48.1457 32.1131 48.4447 30.1319C48.6192 28.0379 48.6035 25.9325 48.398 23.8414L48.3711 23.848Z" fill="url(#paint0_linear_684_5621)"/>
<path d="M59.9398 40.3452V31.0325C59.9398 27.7979 59.9042 25.3454 59.6554 23.7814L66.2312 40.3452H70.4254L77.0367 23.7459C76.7879 25.5942 76.7879 27.1226 76.7879 32.3476V40.3452H81.1954V14.3621H76.7168L68.3283 35.049L59.9398 14.3621H55.5322V40.3452H59.9398Z" fill="url(#paint1_linear_684_5621)"/>
<path d="M101.484 40.3452V36.1509H89.8964V29.2553H100.275V25.2387H89.8964V18.5563H101.484V14.3621H85.3466V40.3452H101.484Z" fill="url(#paint2_linear_684_5621)"/>
<path d="M109.367 40.3452V30.6415H114.947L119.355 40.3452H124.331L119.39 29.6818C122.447 28.4377 124.082 25.9496 124.082 22.4663C124.082 17.3478 120.634 14.3621 114.734 14.3621H104.817V40.3452H109.367ZM109.367 18.4142H114.734C117.613 18.4142 119.319 19.8715 119.319 22.4663C119.319 25.0966 117.613 26.625 114.734 26.625H109.367V18.4142Z" fill="url(#paint3_linear_684_5621)"/>
<path d="M137.943 40.7717C144.093 40.7717 148.856 37.1462 149.851 31.6723H145.123C144.27 34.5514 141.569 36.3997 138.05 36.3997C133.287 36.3997 130.23 32.8453 130.23 27.3359C130.23 21.7909 133.252 18.3075 138.05 18.3075C141.498 18.3075 144.093 20.0848 144.981 23.1061H149.78C148.891 17.5256 144.306 13.9355 138.157 13.9355C130.55 13.9355 125.467 19.3028 125.467 27.3714C125.467 35.5111 130.372 40.7717 137.943 40.7717Z" fill="url(#paint4_linear_684_5621)"/>
<path d="M156.881 40.3452V29.3264H168.398V40.3452H172.947V14.3621H168.398V25.0966H156.881V14.3621H152.332V40.3452H156.881Z" fill="url(#paint5_linear_684_5621)"/>
<defs>
<linearGradient id="paint0_linear_684_5621" x1="-59.8534" y1="98.0669" x2="-108.781" y2="-148.677" gradientUnits="userSpaceOnUse">
<stop stop-color="#44BCF0"/>
<stop offset="0.378795" stop-color="#7298F8"/>
<stop offset="1" stop-color="#A099FF"/>
</linearGradient>
<linearGradient id="paint1_linear_684_5621" x1="-89.1753" y1="62.6715" x2="-94.3613" y2="-64.5622" gradientUnits="userSpaceOnUse">
<stop stop-color="#44BCF0"/>
<stop offset="0.378795" stop-color="#7298F8"/>
<stop offset="1" stop-color="#A099FF"/>
</linearGradient>
<linearGradient id="paint2_linear_684_5621" x1="-89.1753" y1="62.6715" x2="-94.3613" y2="-64.5622" gradientUnits="userSpaceOnUse">
<stop stop-color="#44BCF0"/>
<stop offset="0.378795" stop-color="#7298F8"/>
<stop offset="1" stop-color="#A099FF"/>
</linearGradient>
<linearGradient id="paint3_linear_684_5621" x1="-89.1753" y1="62.6715" x2="-94.3613" y2="-64.5622" gradientUnits="userSpaceOnUse">
<stop stop-color="#44BCF0"/>
<stop offset="0.378795" stop-color="#7298F8"/>
<stop offset="1" stop-color="#A099FF"/>
</linearGradient>
<linearGradient id="paint4_linear_684_5621" x1="-89.1753" y1="62.6715" x2="-94.3613" y2="-64.5622" gradientUnits="userSpaceOnUse">
<stop stop-color="#44BCF0"/>
<stop offset="0.378795" stop-color="#7298F8"/>
<stop offset="1" stop-color="#A099FF"/>
</linearGradient>
<linearGradient id="paint5_linear_684_5621" x1="-89.1753" y1="62.6715" x2="-94.3613" y2="-64.5622" gradientUnits="userSpaceOnUse">
<stop stop-color="#44BCF0"/>
<stop offset="0.378795" stop-color="#7298F8"/>
<stop offset="1" stop-color="#A099FF"/>
</linearGradient>
</defs>
</svg>
