<svg width="1208" height="377" viewBox="0 0 1208 377" fill="none" xmlns="http://www.w3.org/2000/svg">
<path d="M44.2412 88.9528C47.7749 82.3862 52.8734 76.7878 59.0899 72.6521L163.4 0L56.5211 176.275C56.5211 176.275 47.183 160.534 43.54 152.569C39.0022 142.555 36.7132 131.673 36.8341 120.684C36.955 109.695 39.4835 98.8643 44.2412 88.9528ZM1.19075 210.552C2.36866 227.409 7.14359 243.82 15.1966 258.687C23.2485 273.555 34.3931 286.534 47.8831 296.757L163.26 377C163.26 377 91.0728 273.238 30.1869 169.988C24.0222 159.079 19.8783 147.153 17.9531 134.779C17.1011 129.176 17.1011 123.477 17.9531 117.874C16.3653 120.808 13.2841 126.816 13.2841 126.816C7.11021 139.374 2.90522 152.803 0.816547 166.635C-0.385535 181.255 -0.260034 195.954 1.19075 210.552ZM295.353 224.523C291.617 216.559 282.372 200.818 282.372 200.818L175.68 377L279.991 304.394C286.206 300.258 291.306 294.661 294.84 288.094C299.597 278.182 302.125 267.352 302.247 256.363C302.367 245.374 300.078 234.491 295.54 224.477L295.353 224.523ZM337.702 166.494C336.524 149.638 331.749 133.226 323.698 118.359C315.645 103.492 304.5 90.5123 291.01 80.2907L175.82 0C175.82 0 247.959 103.762 308.894 207.012C315.041 217.924 319.169 229.85 321.08 242.221C321.932 247.824 321.932 253.523 321.08 259.126C322.668 256.192 325.749 250.184 325.749 250.184C331.923 237.626 336.128 224.197 338.216 210.365C339.434 195.746 339.325 181.048 337.89 166.448L337.702 166.494Z" fill="url(#paint0_linear_685_5627)"/>
<path d="M418.475 281.669V216.653C418.475 194.071 418.227 176.948 416.49 166.029L462.398 281.669H491.681L537.837 165.781C536.1 178.685 536.1 189.356 536.1 225.834V281.669H566.871V100.268H535.604L477.04 244.694L418.475 100.268H387.704V281.669H418.475Z" fill="url(#paint1_linear_685_5627)"/>
<path d="M708.515 281.669V252.387H627.617V204.245H700.078V176.203H627.617V129.551H708.515V100.268H595.853V281.669H708.515Z" fill="url(#paint2_linear_685_5627)"/>
<path d="M763.549 281.669V213.923H802.509L833.28 281.669H868.022L833.528 207.223C854.869 198.537 866.284 181.167 866.284 156.847C866.284 121.113 842.214 100.268 801.02 100.268H731.785V281.669H763.549ZM763.549 128.558H801.02C821.12 128.558 833.032 138.732 833.032 156.847C833.032 175.211 821.12 185.881 801.02 185.881H763.549V128.558Z" fill="url(#paint3_linear_685_5627)"/>
<path d="M963.057 284.647C1005.99 284.647 1039.24 259.335 1046.19 221.119H1013.18C1007.23 241.22 988.368 254.124 963.801 254.124C930.549 254.124 909.207 229.308 909.207 190.845C909.207 152.133 930.3 127.813 963.801 127.813C987.872 127.813 1005.99 140.221 1012.19 161.314H1045.69C1039.49 122.354 1007.48 97.2905 964.546 97.2905C911.441 97.2905 875.955 134.762 875.955 191.093C875.955 247.92 910.2 284.647 963.057 284.647Z" fill="url(#paint4_linear_685_5627)"/>
<path d="M1095.27 281.669V204.741H1175.67V281.669H1207.44V100.268H1175.67V175.211H1095.27V100.268H1063.51V281.669H1095.27Z" fill="url(#paint5_linear_685_5627)"/>
<defs>
<linearGradient id="paint0_linear_685_5627" x1="-417.865" y1="684.653" x2="-759.451" y2="-1037.99" gradientUnits="userSpaceOnUse">
<stop stop-color="#44BCF0"/>
<stop offset="0.378795" stop-color="#7298F8"/>
<stop offset="1" stop-color="#A099FF"/>
</linearGradient>
<linearGradient id="paint1_linear_685_5627" x1="-622.569" y1="437.54" x2="-658.775" y2="-450.74" gradientUnits="userSpaceOnUse">
<stop stop-color="#44BCF0"/>
<stop offset="0.378795" stop-color="#7298F8"/>
<stop offset="1" stop-color="#A099FF"/>
</linearGradient>
<linearGradient id="paint2_linear_685_5627" x1="-622.569" y1="437.54" x2="-658.775" y2="-450.74" gradientUnits="userSpaceOnUse">
<stop stop-color="#44BCF0"/>
<stop offset="0.378795" stop-color="#7298F8"/>
<stop offset="1" stop-color="#A099FF"/>
</linearGradient>
<linearGradient id="paint3_linear_685_5627" x1="-622.569" y1="437.54" x2="-658.775" y2="-450.74" gradientUnits="userSpaceOnUse">
<stop stop-color="#44BCF0"/>
<stop offset="0.378795" stop-color="#7298F8"/>
<stop offset="1" stop-color="#A099FF"/>
</linearGradient>
<linearGradient id="paint4_linear_685_5627" x1="-622.569" y1="437.54" x2="-658.775" y2="-450.74" gradientUnits="userSpaceOnUse">
<stop stop-color="#44BCF0"/>
<stop offset="0.378795" stop-color="#7298F8"/>
<stop offset="1" stop-color="#A099FF"/>
</linearGradient>
<linearGradient id="paint5_linear_685_5627" x1="-622.569" y1="437.54" x2="-658.775" y2="-450.74" gradientUnits="userSpaceOnUse">
<stop stop-color="#44BCF0"/>
<stop offset="0.378795" stop-color="#7298F8"/>
<stop offset="1" stop-color="#A099FF"/>
</linearGradient>
</defs>
</svg>
