<svg width="170" height="57" viewBox="0 0 170 57" fill="none" xmlns="http://www.w3.org/2000/svg">
<path d="M6.68527 13.4319C7.21925 12.4403 7.98968 11.595 8.92905 10.9705L24.6914 0L8.54088 26.6175C8.54088 26.6175 7.12981 24.2407 6.57931 23.038C5.89361 21.5259 5.54772 19.8827 5.56599 18.2233C5.58426 16.5639 5.96634 14.9285 6.68527 13.4319ZM0.179935 31.7934C0.357927 34.3388 1.07947 36.8169 2.29636 39.0618C3.51307 41.3069 5.19713 43.2667 7.2356 44.8103L24.6702 56.9271C24.6702 56.9271 13.762 41.259 4.56154 25.6682C3.62999 24.021 3.0038 22.2201 2.71289 20.3517C2.58414 19.5057 2.58414 18.645 2.71289 17.799C2.47296 18.2421 2.00736 19.1492 2.00736 19.1492C1.07442 21.0455 0.439007 23.0733 0.123388 25.1619C-0.0582581 27.3696 -0.0392936 29.589 0.179935 31.7934ZM44.6307 33.903C44.0661 32.7005 42.6691 30.3235 42.6691 30.3235L26.547 56.9271L42.3093 45.9636C43.2485 45.3391 44.0191 44.4939 44.5531 43.5023C45.272 42.0055 45.6539 40.3702 45.6724 38.7109C45.6907 37.0516 45.3448 35.4082 44.6589 33.8961L44.6307 33.903ZM51.0301 25.1407C50.8521 22.5954 50.1305 20.1171 48.9138 17.8722C47.6969 15.6273 46.0129 13.6674 43.9744 12.1239L26.568 0C26.568 0 37.4691 15.6681 46.6768 31.2589C47.6058 32.9066 48.2295 34.7075 48.5183 36.5754C48.6471 37.4214 48.6471 38.2821 48.5183 39.1281C48.7583 38.685 49.2239 37.7779 49.2239 37.7779C50.1568 35.8816 50.7922 33.8538 51.1077 31.7652C51.2918 29.5577 51.2752 27.3382 51.0584 25.1337L51.0301 25.1407Z" fill="url(#paint0_linear_810_5657)"/>
<path d="M67.5505 39.5432V33.3295C67.5505 30.8981 67.5204 29.037 67.2503 27.386L71.9331 39.5432H76.3757L81.0885 27.386C80.8483 29.037 80.8483 30.0876 80.8483 34.8905V39.5432H85.5611V17.3301H80.7883L74.1544 33.8999L67.5505 17.3301H62.8377V39.5432H67.5505Z" fill="url(#paint1_linear_810_5657)"/>
<path d="M104.146 39.5432V35.0405H94.9006V30.4478H103.095V26.1853H94.9006V21.8327H104.146V17.3301H90.0378V39.5432H104.146Z" fill="url(#paint2_linear_810_5657)"/>
<path d="M112.837 39.5432V31.7686H116.59L119.922 39.5432H125.235L121.332 30.718C123.794 29.4572 125.025 27.416 125.025 24.5343C125.025 19.9416 121.963 17.3301 116.56 17.3301H107.975V39.5432H112.837ZM112.837 21.6526H116.56C118.721 21.6526 119.892 22.6732 119.892 24.5343C119.892 26.4254 118.661 27.5061 116.53 27.5061H112.837V21.6526Z" fill="url(#paint3_linear_810_5657)"/>
<path d="M138.097 39.9034C143.65 39.9034 147.792 36.6315 148.573 31.6786H143.53C142.93 33.8699 140.918 35.2206 138.187 35.2206C134.615 35.2206 132.393 32.6091 132.393 28.4366C132.393 24.2041 134.585 21.6526 138.187 21.6526C140.858 21.6526 142.749 22.9134 143.41 25.1347H148.543C147.852 20.1517 143.86 16.9698 138.307 16.9698C131.673 16.9698 127.26 21.5325 127.26 28.4667C127.26 35.4908 131.433 39.9034 138.097 39.9034Z" fill="url(#paint4_linear_810_5657)"/>
<path d="M156.538 39.5432V30.5979H165.123V39.5432H169.986V17.3301H165.123V26.0953H156.538V17.3301H151.675V39.5432H156.538Z" fill="url(#paint5_linear_810_5657)"/>
<defs>
<linearGradient id="paint0_linear_810_5657" x1="-63.1435" y1="103.383" x2="-114.689" y2="-156.751" gradientUnits="userSpaceOnUse">
<stop stop-color="#44BCF0"/>
<stop offset="0.378795" stop-color="#7298F8"/>
<stop offset="1" stop-color="#A099FF"/>
</linearGradient>
<linearGradient id="paint1_linear_810_5657" x1="-69.2163" y1="58.6185" x2="-73.3674" y2="-50.1347" gradientUnits="userSpaceOnUse">
<stop stop-color="#44BCF0"/>
<stop offset="0.378795" stop-color="#7298F8"/>
<stop offset="1" stop-color="#A099FF"/>
</linearGradient>
<linearGradient id="paint2_linear_810_5657" x1="-69.2163" y1="58.6185" x2="-73.3674" y2="-50.1347" gradientUnits="userSpaceOnUse">
<stop stop-color="#44BCF0"/>
<stop offset="0.378795" stop-color="#7298F8"/>
<stop offset="1" stop-color="#A099FF"/>
</linearGradient>
<linearGradient id="paint3_linear_810_5657" x1="-69.2163" y1="58.6185" x2="-73.3674" y2="-50.1347" gradientUnits="userSpaceOnUse">
<stop stop-color="#44BCF0"/>
<stop offset="0.378795" stop-color="#7298F8"/>
<stop offset="1" stop-color="#A099FF"/>
</linearGradient>
<linearGradient id="paint4_linear_810_5657" x1="-69.2163" y1="58.6185" x2="-73.3674" y2="-50.1347" gradientUnits="userSpaceOnUse">
<stop stop-color="#44BCF0"/>
<stop offset="0.378795" stop-color="#7298F8"/>
<stop offset="1" stop-color="#A099FF"/>
</linearGradient>
<linearGradient id="paint5_linear_810_5657" x1="-69.2163" y1="58.6185" x2="-73.3674" y2="-50.1347" gradientUnits="userSpaceOnUse">
<stop stop-color="#44BCF0"/>
<stop offset="0.378795" stop-color="#7298F8"/>
<stop offset="1" stop-color="#A099FF"/>
</linearGradient>
</defs>
</svg>
