<svg width="199" height="62" viewBox="0 0 199 62" fill="none" xmlns="http://www.w3.org/2000/svg">
<path d="M7.27574 14.6288C7.85688 13.5489 8.69535 12.6282 9.7177 11.9481L26.8722 0L9.29524 28.9894C9.29524 28.9894 7.75955 26.4008 7.16042 25.091C6.41416 23.4441 6.03771 21.6545 6.0576 19.8472C6.07748 18.0399 6.49331 16.2589 7.27574 14.6288ZM0.195827 34.6265C0.38954 37.3988 1.17481 40.0978 2.49918 42.5427C3.82336 44.9878 5.65616 47.1223 7.87468 48.8035L26.8491 62C26.8491 62 14.9775 44.9357 4.96443 27.9556C3.95061 26.1616 3.26911 24.2002 2.9525 22.1653C2.81238 21.2439 2.81238 20.3065 2.9525 19.3851C2.69138 19.8677 2.18466 20.8557 2.18466 20.8557C1.16932 22.9209 0.477782 25.1295 0.134286 27.4042C-0.0634037 29.8085 -0.0427642 32.2258 0.195827 34.6265ZM48.5726 36.9242C47.9582 35.6145 46.4378 33.0257 46.4378 33.0257L28.8917 62L46.0462 50.0595C47.0684 49.3794 47.9071 48.4589 48.4882 47.3789C49.2706 45.7487 49.6863 43.9676 49.7063 42.1606C49.7262 40.3533 49.3498 38.5635 48.6033 36.9166L48.5726 36.9242ZM55.5372 27.381C55.3435 24.6089 54.5583 21.9098 53.2341 19.4649C51.9097 17.0199 50.0769 14.8853 47.8584 13.2043L28.9146 0C28.9146 0 40.7785 17.0643 50.7995 34.0444C51.8105 35.839 52.4893 37.8003 52.8037 39.8347C52.9438 40.7561 52.9438 41.6935 52.8037 42.6149C53.0648 42.1323 53.5715 41.1443 53.5715 41.1443C54.5869 39.0791 55.2784 36.8705 55.6217 34.5958C55.822 32.1917 55.804 29.7744 55.5681 27.3735L55.5372 27.381Z" fill="white"/>
<path d="M68.8203 46.3222V35.6298C68.8203 31.9161 68.7795 29.1002 68.4938 27.3045L76.0437 46.3222H80.8594L88.4501 27.2637C88.1644 29.3858 88.1644 31.1407 88.1644 37.1398V46.3222H93.2249V16.4897H88.0828L78.4515 40.2414L68.8203 16.4897H63.7598V46.3222H68.8203Z" fill="white"/>
<path d="M116.519 46.3222V41.5065H103.215V33.5893H115.132V28.9777H103.215V21.3054H116.519V16.4897H97.9911V46.3222H116.519Z" fill="white"/>
<path d="M125.57 46.3222V35.1809H131.977L137.038 46.3222H142.751L137.078 34.079C140.588 32.6507 142.465 29.7939 142.465 25.7945C142.465 19.9178 138.507 16.4897 131.732 16.4897H120.346V46.3222H125.57ZM125.57 21.1421H131.732C135.038 21.1421 136.997 22.8153 136.997 25.7945C136.997 28.8145 135.038 30.5693 131.732 30.5693H125.57V21.1421Z" fill="white"/>
<path d="M158.38 46.8119C165.44 46.8119 170.909 42.6492 172.052 36.3644H166.624C165.644 39.6701 162.543 41.7922 158.503 41.7922C153.034 41.7922 149.524 37.7112 149.524 31.3855C149.524 25.0191 152.993 21.0197 158.503 21.0197C162.461 21.0197 165.44 23.0602 166.461 26.5291H171.97C170.95 20.1219 165.685 16 158.625 16C149.892 16 144.056 22.1624 144.056 31.4264C144.056 40.772 149.687 46.8119 158.38 46.8119Z" fill="white"/>
<path d="M180.123 46.3222V33.6709H193.346V46.3222H198.57V16.4897H193.346V28.8145H180.123V16.4897H174.9V46.3222H180.123Z" fill="white"/>
</svg>
